<svg xmlns="http://www.w3.org/2000/svg" version="1.1" xmlns:xlink="http://www.w3.org/1999/xlink" xmlns:svgjs="http://svgjs.dev/svgjs" width="2000" height="373" viewBox="0 0 2000 373"><g transform="matrix(1,0,0,1,-1.2121212121212466,-0.38836243498764134)"><svg viewBox="0 0 396 74" data-background-color="#ffffff" preserveAspectRatio="xMidYMid meet" height="373" width="2000" xmlns="http://www.w3.org/2000/svg" xmlns:xlink="http://www.w3.org/1999/xlink"><g id="tight-bounds" transform="matrix(1,0,0,1,0.2400000000000091,0.07704777530585716)"><svg viewBox="0 0 395.52 73.84590444938829" height="73.84590444938829" width="395.52"><g><svg viewBox="0 0 510.38119697594504 95.29116379614194" height="73.84590444938829" width="395.52"><g transform="matrix(1,0,0,1,114.86119697594506,26.921288471586376)"><svg viewBox="0 0 395.52 41.44858685296919" height="41.44858685296919" width="395.52"><g id="textblocktransform"><svg viewBox="0 0 395.52 41.44858685296919" height="41.44858685296919" width="395.52" id="textblock"><g><svg viewBox="0 0 395.52 41.44858685296919" height="41.44858685296919" width="395.52"><g transform="matrix(1,0,0,1,0,0)"><svg width="395.52" viewBox="0.73 -31.74 307.49 32.23" height="41.44858685296919" data-palette-color="#4a596d"><path d="M5.52 0L21.63 0Q21.34-1.22 20.31-1.32L20.31-1.32 16.99-1.32 16.99-27.98 17.82-27.98Q21.34-27.98 22.8-24.85L22.8-24.85Q23.1-24.17 23.44-23.24L23.44-23.24 24.95-18.85 26.42-18.85 26.22-29.3 0.93-29.3 0.73-18.85 2.2-18.85 3.71-23.24Q4.79-26.37 6.49-27.34L6.49-27.34Q7.67-27.98 9.33-27.98L9.33-27.98 10.16-27.98 10.16-1.32 5.52-1.32 5.52 0ZM40.77-1.27L40.77-1.27 37.16-1.27 37.16-11.82Q37.5-16.94 39.65-18.07L39.65-18.07Q39.99-18.21 40.28-18.21L40.28-18.21Q40.82-18.21 41.45-17.09L41.45-17.09Q42.33-15.53 43.36-15.14L43.36-15.14Q43.85-14.99 44.43-14.99L44.43-14.99Q46.38-14.99 47.21-16.85L47.21-16.85Q47.51-17.48 47.51-18.16L47.51-18.16Q47.51-20.61 45.11-21.24L45.11-21.24Q44.53-21.39 43.89-21.39L43.89-21.39Q40.87-21.39 38.57-18.99L38.57-18.99Q37.55-17.82 37.01-16.46L37.01-16.46 36.67-21 28.12-21 28.12-19.73 30.95-19.73 30.95-3.81Q30.95-1.66 29.25-1.37L29.25-1.37Q28.76-1.27 28.12-1.27L28.12-1.27 28.12 0 41.94 0Q41.94-1.12 41.31-1.22L41.31-1.22Q41.06-1.27 40.77-1.27ZM66.69 0.49L66.69 0.49Q70.26 0.49 71.14-2.1L71.14-2.1Q71.43-3.08 71.58-4.59L71.58-4.59 70.31-4.64Q70.01-1.27 68.6-1.22L68.6-1.22Q67.52-1.32 67.52-3.66L67.52-3.66 67.52-13.87Q67.52-19.97 61.86-21.39L61.86-21.39Q60.4-21.73 58.69-21.73L58.69-21.73Q52.05-21.73 50.34-18.85L50.34-18.85Q49.9-18.12 49.9-17.29L49.9-17.29Q49.9-15.38 51.7-14.89L51.7-14.89Q52.14-14.75 52.63-14.75L52.63-14.75Q54.73-14.75 55.46-16.8L55.46-16.8Q55.56-17.09 55.76-17.77L55.76-17.77Q56.29-19.73 57.12-20.21L57.12-20.21Q57.66-20.46 58.34-20.46L58.34-20.46Q60.64-20.46 61.13-17.68L61.13-17.68Q61.32-16.65 61.32-15.23L61.32-15.23 61.32-12.06Q48.77-11.82 48.73-5.42L48.73-5.42Q48.73-1.07 52.53 0.15L52.53 0.15Q53.66 0.49 55.02 0.49L55.02 0.49Q59.17 0.49 61.13-2.64L61.13-2.64Q61.52-3.27 61.76-3.96L61.76-3.96Q62.79 0.24 66.69 0.49ZM57.56-1.61L57.56-1.61Q55.12-1.71 55.07-5.96L55.07-5.96Q55.07-9.18 57.71-10.16L57.71-10.16Q59.13-10.6 61.32-10.69L61.32-10.69 61.32-5.96Q60.4-2.54 58.34-1.76L58.34-1.76Q57.91-1.61 57.56-1.61ZM79.88-19.78L83.2-19.78 83.2-21 71.92-21 71.92-19.78 73.82-19.78 79.97-3.32Q81.05-0.54 81.68-0.1L81.68-0.1Q82.22 0.24 83.24 0.24L83.24 0.24 85 0.24 92.08-18.36Q92.57-19.58 93.35-19.73L93.35-19.73Q93.64-19.78 93.94-19.78L93.94-19.78Q94.72-19.78 94.82-19.87L94.82-19.87Q94.91-20.17 94.91-21L94.91-21 87-21 87-19.78 91.01-19.78 85.25-5.03 79.88-19.78ZM107.41-20.46L107.41-20.46Q110.54-20.36 110.59-15.14L110.59-15.14Q110.59-12.84 109.22-12.3L109.22-12.3Q108.24-11.96 106.29-12.06L106.29-12.06 103.16-12.21Q103.51-20.31 107.41-20.46ZM116.54-5.03L116.54-5.03 115.37-5.42Q114-2.44 111.07-1.37L111.07-1.37Q109.9-0.93 108.68-0.93L108.68-0.93Q104.78-0.93 103.65-5.91L103.65-5.91Q103.21-7.96 103.16-10.79L103.16-10.79 107.66-10.64Q115.52-10.4 116.79-13.13L116.79-13.13Q117.08-13.82 117.08-14.65L117.08-14.65Q117.08-18.8 112.83-20.7L112.83-20.7Q110.44-21.73 107.41-21.73L107.41-21.73Q101.89-21.73 98.82-17.97L98.82-17.97Q96.47-15.04 96.47-10.69L96.47-10.69Q96.47-3.61 101.8-0.83L101.8-0.83Q104.34 0.49 107.56 0.49L107.56 0.49Q113.27 0.49 115.76-3.52L115.76-3.52Q116.25-4.25 116.54-5.03ZM131.43-1.27L131.43-1.27 128.99-1.27 128.99-31.74 118.98-31.74 118.98-30.47 122.79-30.47 122.79-3.91Q122.79-1.9 121.18-1.46L121.18-1.46Q120.35-1.27 118.98-1.27L118.98-1.27 118.98 0 132.6 0Q132.6-1.12 131.97-1.22L131.97-1.22Q131.73-1.27 131.43-1.27ZM154.72-27.98L157.5-27.98Q162.58-27.88 162.63-21.14L162.63-21.14Q162.53-14.4 157.31-14.36L157.31-14.36 154.72-14.36 154.72-27.98ZM143.98 0L159.6 0Q159.31-1.22 158.28-1.32L158.28-1.32 154.72-1.32 154.72-12.89 158.72-12.89Q167.17-12.89 169.32-18.21L169.32-18.21Q169.95-19.73 169.95-21.58L169.95-21.58Q169.95-26.17 165.85-28.17L165.85-28.17Q163.51-29.3 160.29-29.3L160.29-29.3 143.98-29.3 143.98-27.98 147.88-27.98 147.88-1.32 143.98-1.32 143.98 0ZM183.62-1.27L183.62-1.27 181.18-1.27 181.18-31.74 171.17-31.74 171.17-30.47 174.98-30.47 174.98-3.91Q174.98-1.9 173.37-1.46L173.37-1.46Q172.54-1.27 171.17-1.27L171.17-1.27 171.17 0 184.79 0Q184.79-1.12 184.16-1.22L184.16-1.22Q183.92-1.27 183.62-1.27ZM204.62 0.49L204.62 0.49Q208.18 0.49 209.06-2.1L209.06-2.1Q209.35-3.08 209.5-4.59L209.5-4.59 208.23-4.64Q207.94-1.27 206.52-1.22L206.52-1.22Q205.45-1.32 205.45-3.66L205.45-3.66 205.45-13.87Q205.45-19.97 199.78-21.39L199.78-21.39Q198.32-21.73 196.61-21.73L196.61-21.73Q189.97-21.73 188.26-18.85L188.26-18.85Q187.82-18.12 187.82-17.29L187.82-17.29Q187.82-15.38 189.63-14.89L189.63-14.89Q190.07-14.75 190.55-14.75L190.55-14.75Q192.65-14.75 193.39-16.8L193.39-16.8Q193.48-17.09 193.68-17.77L193.68-17.77Q194.22-19.73 195.05-20.21L195.05-20.21Q195.58-20.46 196.27-20.46L196.27-20.46Q198.56-20.46 199.05-17.68L199.05-17.68Q199.25-16.65 199.25-15.23L199.25-15.23 199.25-12.06Q186.7-11.82 186.65-5.42L186.65-5.42Q186.65-1.07 190.46 0.15L190.46 0.15Q191.58 0.49 192.95 0.49L192.95 0.49Q197.1 0.49 199.05-2.64L199.05-2.64Q199.44-3.27 199.68-3.96L199.68-3.96Q200.71 0.24 204.62 0.49ZM195.49-1.61L195.49-1.61Q193.04-1.71 193-5.96L193-5.96Q193-9.18 195.63-10.16L195.63-10.16Q197.05-10.6 199.25-10.69L199.25-10.69 199.25-5.96Q198.32-2.54 196.27-1.76L196.27-1.76Q195.83-1.61 195.49-1.61ZM220.97-1.27L220.97-1.27 219.75-1.27 219.8-13.77Q220.14-17.63 222.63-18.85L222.63-18.85Q223.31-19.19 224.05-19.19L224.05-19.19Q226.83-19.19 227.32-15.92L227.32-15.92Q227.42-15.28 227.42-14.6L227.42-14.6 227.42-3.81Q227.42-1.76 226.34-1.42L226.34-1.42Q225.85-1.27 225.17-1.27L225.17-1.27 225.17 0 236.45 0Q236.45-1.12 235.81-1.22L235.81-1.22Q235.52-1.27 235.23-1.27L235.23-1.27 233.62-1.27 233.62-13.77Q233.62-19.82 229.32-21.34L229.32-21.34Q228.15-21.73 226.88-21.73L226.88-21.73Q223.31-21.73 220.82-18.9L220.82-18.9Q220.09-18.07 219.65-17.19L219.65-17.19 219.41-21 210.72-21 210.72-19.73 213.55-19.73 213.55-3.81Q213.55-1.56 211.45-1.32L211.45-1.32Q211.11-1.27 210.72-1.27L210.72-1.27 210.72 0 222.14 0Q222.14-1.12 221.51-1.22L221.51-1.22Q221.26-1.27 220.97-1.27ZM248.41-1.27L248.41-1.27 247.19-1.27 247.24-13.77Q247.58-17.63 250.07-18.85L250.07-18.85Q250.75-19.19 251.49-19.19L251.49-19.19Q254.27-19.19 254.76-15.92L254.76-15.92Q254.86-15.28 254.86-14.6L254.86-14.6 254.86-3.81Q254.86-1.76 253.78-1.42L253.78-1.42Q253.29-1.27 252.61-1.27L252.61-1.27 252.61 0 263.89 0Q263.89-1.12 263.25-1.22L263.25-1.22Q262.96-1.27 262.67-1.27L262.67-1.27 261.06-1.27 261.06-13.77Q261.06-19.82 256.76-21.34L256.76-21.34Q255.59-21.73 254.32-21.73L254.32-21.73Q250.75-21.73 248.26-18.9L248.26-18.9Q247.53-18.07 247.09-17.19L247.09-17.19 246.85-21 238.16-21 238.16-19.73 240.99-19.73 240.99-3.81Q240.99-1.56 238.89-1.32L238.89-1.32Q238.55-1.27 238.16-1.27L238.16-1.27 238.16 0 249.58 0Q249.58-1.12 248.95-1.22L248.95-1.22Q248.7-1.27 248.41-1.27ZM277.02-20.46L277.02-20.46Q280.15-20.36 280.19-15.14L280.19-15.14Q280.19-12.84 278.83-12.3L278.83-12.3Q277.85-11.96 275.9-12.06L275.9-12.06 272.77-12.21Q273.11-20.31 277.02-20.46ZM286.15-5.03L286.15-5.03 284.98-5.42Q283.61-2.44 280.68-1.37L280.68-1.37Q279.51-0.93 278.29-0.93L278.29-0.93Q274.38-0.93 273.26-5.91L273.26-5.91Q272.82-7.96 272.77-10.79L272.77-10.79 277.26-10.64Q285.13-10.4 286.4-13.13L286.4-13.13Q286.69-13.82 286.69-14.65L286.69-14.65Q286.69-18.8 282.44-20.7L282.44-20.7Q280.05-21.73 277.02-21.73L277.02-21.73Q271.5-21.73 268.43-17.97L268.43-17.97Q266.08-15.04 266.08-10.69L266.08-10.69Q266.08-3.61 271.41-0.83L271.41-0.83Q273.94 0.49 277.17 0.49L277.17 0.49Q282.88 0.49 285.37-3.52L285.37-3.52Q285.86-4.25 286.15-5.03ZM301.48-1.27L301.48-1.27 297.87-1.27 297.87-11.82Q298.21-16.94 300.36-18.07L300.36-18.07Q300.7-18.21 300.99-18.21L300.99-18.21Q301.53-18.21 302.16-17.09L302.16-17.09Q303.04-15.53 304.07-15.14L304.07-15.14Q304.56-14.99 305.14-14.99L305.14-14.99Q307.1-14.99 307.93-16.85L307.93-16.85Q308.22-17.48 308.22-18.16L308.22-18.16Q308.22-20.61 305.83-21.24L305.83-21.24Q305.24-21.39 304.61-21.39L304.61-21.39Q301.58-21.39 299.28-18.99L299.28-18.99Q298.26-17.82 297.72-16.46L297.72-16.46 297.38-21 288.83-21 288.83-19.73 291.67-19.73 291.67-3.81Q291.67-1.66 289.96-1.37L289.96-1.37Q289.47-1.27 288.83-1.27L288.83-1.27 288.83 0 302.65 0Q302.65-1.12 302.02-1.22L302.02-1.22Q301.77-1.27 301.48-1.27Z" opacity="1" transform="matrix(1,0,0,1,0,0)" fill="#000000" class="wordmark-text-0" data-fill-palette-color="primary" id="text-0"></path></svg></g></svg></g></svg></g></svg></g><g><svg viewBox="0 0 95.29116379614194 95.29116379614194" height="95.29116379614194" width="95.29116379614194"><g><svg></svg></g><g id="icon-0"><svg viewBox="0 0 95.29116379614194 95.29116379614194" height="95.29116379614194" width="95.29116379614194"><g><path d="M0 47.646c0-26.314 21.332-47.646 47.646-47.646 26.314 0 47.646 21.332 47.645 47.646 0 26.314-21.332 47.646-47.645 47.645-26.314 0-47.646-21.332-47.646-47.645zM47.646 91.553c24.25 0 43.908-19.658 43.907-43.907 0-24.25-19.658-43.908-43.907-43.908-24.25 0-43.908 19.658-43.908 43.908 0 24.25 19.658 43.908 43.908 43.907z" data-fill-palette-color="tertiary" fill="#000000" stroke="transparent"></path></g><g transform="matrix(1,0,0,1,22.04988720064015,25.240099159270024)"><svg viewBox="0 0 51.191389394861645 44.8109654776019" height="44.8109654776019" width="51.191389394861645"><g><svg xmlns="http://www.w3.org/2000/svg" xmlns:xlink="http://www.w3.org/1999/xlink" version="1.1" x="0" y="0" viewBox="5.034 10.637 89.93199999999999 78.723" enable-background="new 0 0 100 100" xml:space="preserve" height="44.8109654776019" width="51.191389394861645" class="icon-dxe-0" data-fill-palette-color="accent" id="dxe-0"><g fill="#4a596d" data-fill-palette-color="accent"><path d="M48.739 32.49C48.739 20.441 38.936 10.637 26.886 10.637 14.837 10.637 5.034 20.44 5.034 32.49 5.034 44.539 14.837 54.343 26.886 54.343 38.936 54.343 48.739 44.539 48.739 32.49M6.715 32.49C6.715 21.368 15.764 12.318 26.886 12.318S47.057 21.368 47.057 32.49 38.008 52.661 26.886 52.661 6.715 43.612 6.715 32.49M45.457 32.49C45.457 22.249 37.127 13.92 26.887 13.92S8.319 22.249 8.319 32.49 16.648 51.059 26.887 51.059C37.128 51.06 45.457 42.73 45.457 32.49M9.439 32.49C9.439 22.868 17.265 15.041 26.887 15.041S44.336 22.868 44.336 32.49 36.509 49.939 26.887 49.939 9.439 42.112 9.439 32.49M26.327 17.481H27.448V20.482H26.327zM11.878 31.93H14.88V33.051H11.878zM26.327 44.498H27.448V47.499H26.327zM38.893 31.93H41.897V33.051H38.893zM26.887 34.552A2.06 2.06 0 0 0 28.867 33.035L32.033 31.206A1.44 1.44 0 0 0 32.716 30.319C32.816 29.943 32.767 29.548 32.57 29.209 32.18 28.538 31.25 28.289 30.574 28.676L27.408 30.504A2 2 0 0 0 26.887 30.43C26.707 30.43 26.537 30.46 26.368 30.504L20.601 27.173C19.925 26.789 18.992 27.036 18.605 27.709A1.45 1.45 0 0 0 18.459 28.818C18.56 29.195 18.802 29.509 19.138 29.704L24.906 33.036A2.06 2.06 0 0 0 26.887 34.552M26.887 33.431A0.94 0.94 0 0 1 25.947 32.49C25.947 32.373 25.974 32.264 26.015 32.161 26.026 32.131 26.04 32.103 26.054 32.075A1 1 0 0 1 26.189 31.875C26.211 31.852 26.227 31.827 26.251 31.806A0.9 0.9 0 0 1 26.518 31.625L26.519 31.624 26.523 31.622A0.94 0.94 0 0 1 27.248 31.622L27.255 31.625A1 1 0 0 1 27.518 31.802C27.548 31.833 27.577 31.868 27.603 31.903A1 1 0 0 1 27.771 32.232C27.778 32.252 27.779 32.272 27.783 32.293 27.802 32.374 27.812 32.459 27.812 32.549A0.93 0.93 0 0 1 26.887 33.431M31.134 29.646A0.35 0.35 0 0 1 31.599 29.77 0.337 0.337 0 0 1 31.471 30.234L28.817 31.767C28.814 31.757 28.803 31.749 28.8 31.74A2 2 0 0 0 28.508 31.236C28.495 31.218 28.489 31.196 28.476 31.179zM19.541 28.526A0.34 0.34 0 0 1 20.04 28.144L25.294 31.179C25.279 31.195 25.274 31.218 25.261 31.236A2.2 2.2 0 0 0 24.969 31.742C24.966 31.752 24.956 31.76 24.953 31.769L19.697 28.733A0.36 0.36 0 0 1 19.541 28.526M21.284 76.475H88.522V78.157H21.284zM21.284 70.872H88.522V72.553H21.284zM21.284 65.269H88.522V66.95H21.284zM77.316 27.167H88.522V28.848H77.316zM77.316 31.649H88.522V33.33H77.316zM77.316 36.132H88.522V37.813H77.316zM88.522 20.443H58.621A6.43 6.43 0 0 0 53.684 22.746 6.43 6.43 0 0 0 52.269 28.01C52.526 29.48 52.662 30.987 52.662 32.49 52.662 46.668 41.125 58.264 26.887 58.264A26 26 0 0 1 22.406 57.872 6.49 6.49 0 0 0 17.143 59.282 6.43 6.43 0 0 0 14.841 64.223V82.917A6.45 6.45 0 0 0 21.284 89.36H88.522A6.45 6.45 0 0 0 94.966 82.917V26.887A6.45 6.45 0 0 0 88.522 20.443M54.972 23.828A4.75 4.75 0 0 1 58.62 22.124H88.521A4.77 4.77 0 0 1 93.284 26.887V42.856H52.305C52.31 42.847 52.312 42.837 52.316 42.829A27.3 27.3 0 0 0 54.343 32.49 27.5 27.5 0 0 0 53.925 27.718 4.75 4.75 0 0 1 54.972 23.828M93.285 82.919A4.77 4.77 0 0 1 88.522 87.682H21.284A4.77 4.77 0 0 1 16.521 82.919V64.225A4.76 4.76 0 0 1 21.285 59.456C21.562 59.456 21.84 59.479 22.113 59.526 23.681 59.806 25.285 59.946 26.886 59.946 37.706 59.946 47.081 53.654 51.552 44.538H93.284z" fill="#000000" data-fill-palette-color="accent"></path></g></svg></g></svg></g></svg></g></svg></g></svg></g><defs></defs></svg><rect width="395.52" height="73.84590444938829" fill="none" stroke="none" visibility="hidden"></rect></g></svg></g></svg>